<svg width="495" height="481" viewBox="0 0 495 481" fill="none" xmlns="http://www.w3.org/2000/svg">
<path d="M300.017 479.853C242.807 475.238 216.058 395.134 209.835 355.659C184.447 349.986 183.994 412.057 170.283 430.836C156.571 449.615 98.8761 531.395 42.8715 416.429C-13.1331 301.463 126.123 308.745 128.94 285.208C131.757 261.671 -7.96104 260.748 0.880169 197.312C9.72137 133.876 104.671 172.76 129.254 197.58C153.836 222.4 156.509 225.93 135.11 125.945C113.712 25.9592 141.607 8.77131 191.072 2.02327C240.537 -4.72477 258.11 15.3303 273.394 57.3229C288.678 99.3154 251.291 233.078 274.751 193.023C298.21 152.969 451.748 51.4998 488.246 182.289C524.743 313.079 388.725 266.63 329.676 286.715C270.627 306.8 374.208 304.556 386.713 368.664C399.218 432.773 371.53 485.622 300.017 479.853Z" fill="#111111"/>
</svg>
